<svg width="19" height="20" viewBox="0 0 19 20" fill="none" xmlns="http://www.w3.org/2000/svg">
<path fill-rule="evenodd" clip-rule="evenodd" d="M2.38378 11.7889C2.25427 11.9186 2.16881 12.0881 2.14017 12.2721L1.22559 18.1953L7.24055 17.5467C7.42795 17.5266 7.60327 17.4417 7.7381 17.3057L17.2989 7.57554C17.941 6.92676 18.1985 5.97274 17.974 5.07421C17.7933 4.35101 17.3391 3.60221 16.6114 2.82994C15.2602 1.39207 13.8088 1.09127 12.2635 1.92967C12.0498 2.04536 11.8534 2.19229 11.6803 2.36594L2.38378 11.7889ZM2.18408 15.9755L3.45273 17.3313L2.18408 15.9755Z" fill="#1BA4F7"/>
<path d="M2.38378 11.7889L2.95697 12.3612L2.96039 12.3577L2.38378 11.7889ZM2.14017 12.2721L1.33981 12.1475L1.33965 12.1485L2.14017 12.2721ZM1.22559 18.1953L0.425072 18.0717L0.264187 19.1136L1.31242 19.0006L1.22559 18.1953ZM7.24055 17.5467L7.15402 16.7414L7.15372 16.7414L7.24055 17.5467ZM7.7381 17.3057L8.31331 17.876L8.31587 17.8734L7.7381 17.3057ZM17.2989 7.57554L16.7232 7.00573L16.7211 7.00783L17.2989 7.57554ZM17.974 5.07421L17.1881 5.2705L17.1881 5.27057L17.974 5.07421ZM16.6114 2.82994L16.0211 3.38464L16.0219 3.38545L16.6114 2.82994ZM12.2635 1.92967L12.6491 2.642L12.6498 2.64163L12.2635 1.92967ZM11.6803 2.36594L11.1066 1.79409L11.1037 1.79706L11.6803 2.36594ZM2.77552 15.4221L2.22207 14.8307L1.0392 15.9376L1.59264 16.529L2.77552 15.4221ZM2.86129 17.8847L3.41473 18.4762L4.59761 17.3693L4.04416 16.7778L2.86129 17.8847ZM1.8106 11.2165C1.55779 11.4697 1.3944 11.7968 1.33981 12.1475L2.94053 12.3967C2.94323 12.3793 2.95074 12.3674 2.95696 12.3612L1.8106 11.2165ZM1.33965 12.1485L0.425072 18.0717L2.0261 18.3189L2.94068 12.3957L1.33965 12.1485ZM1.31242 19.0006L7.32739 18.3521L7.15372 16.7414L1.13876 17.3899L1.31242 19.0006ZM7.32709 18.3521C7.70275 18.3117 8.04972 18.1418 8.3133 17.876L7.1629 16.7354C7.15978 16.7385 7.15725 16.74 7.15586 16.7407C7.15514 16.7411 7.15465 16.7412 7.15439 16.7413C7.15414 16.7414 7.15403 16.7414 7.15402 16.7414L7.32709 18.3521ZM8.31587 17.8734L17.8766 8.14325L16.7211 7.00783L7.16034 16.738L8.31587 17.8734ZM17.8746 8.14534C18.7193 7.29184 19.0517 6.04602 18.7598 4.87784L17.1881 5.27057C17.3453 5.89947 17.1627 6.56168 16.7232 7.00574L17.8746 8.14534ZM18.7598 4.87791C18.5344 3.97535 17.9861 3.10767 17.2009 2.27443L16.0219 3.38545C16.6922 4.09674 17.0523 4.72666 17.1881 5.2705L18.7598 4.87791ZM17.2017 2.27524C16.4493 1.47466 15.6089 0.926555 14.6745 0.733037C13.7286 0.537138 12.7852 0.725108 11.8772 1.21771L12.6498 2.64163C13.2872 2.29584 13.842 2.21501 14.346 2.31937C14.8614 2.42612 15.4222 2.74735 16.0211 3.38464L17.2017 2.27524ZM11.8779 1.21735C11.5944 1.37082 11.3348 1.56525 11.1066 1.7941L12.254 2.93778C12.372 2.81934 12.5052 2.71989 12.6491 2.642L11.8779 1.21735ZM11.1037 1.79706L1.80717 11.22L2.96039 12.3577L12.2569 2.93481L11.1037 1.79706ZM1.59264 16.529L2.86129 17.8847L4.04416 16.7778L2.77552 15.4221L1.59264 16.529Z" fill="white"/>
<path fill-rule="evenodd" clip-rule="evenodd" d="M6.75195 12.9001L13.7521 5.90137L6.75195 12.9001Z" fill="#1BA4F7"/>
<path d="M6.75195 12.9001L13.7521 5.90137" stroke="white" stroke-width="1.62" stroke-linecap="round"/>
</svg>
