<svg width="24" height="18" viewBox="0 0 24 18" fill="none" xmlns="http://www.w3.org/2000/svg">
<path fill-rule="evenodd" clip-rule="evenodd" d="M11.4107 4.26271C11.8968 4.26271 12.2908 3.86867 12.2908 3.38262V0.880096C12.2908 0.394048 11.8968 0 11.4107 0C10.9246 0 10.5306 0.394048 10.5306 0.880096V3.38262C10.5306 3.86867 10.9246 4.26271 11.4107 4.26271ZM18.1373 7.04832C18.3625 7.04832 18.5877 6.96243 18.7596 6.79063L20.5294 5.02152C20.8731 4.67781 20.8733 4.12066 20.5297 3.77683C20.186 3.43301 19.6288 3.43289 19.285 3.77671L17.5152 5.54582C17.1715 5.88941 17.1713 6.44669 17.5149 6.7904C17.6867 6.96243 17.912 7.04832 18.1373 7.04832ZM4.6852 7.04829C4.46001 7.04829 4.23471 6.96239 4.06292 6.7906L2.29381 5.02137C1.9501 4.67778 1.9501 4.12051 2.29381 3.7768C2.6374 3.43309 3.19467 3.43309 3.53838 3.7768L5.30749 5.54591C5.65119 5.88962 5.65119 6.44689 5.30749 6.7906C5.13569 6.96239 4.91039 7.04829 4.6852 7.04829ZM17.9688 10.9113H4.85432C5.70698 8.09848 8.32387 6.04513 11.4113 6.04513C14.4989 6.04513 17.1161 8.09848 17.9688 10.9113ZM1.37749 11.9033C0.892864 11.9033 0.5 12.2962 0.5 12.7808V13.0097C0.5 13.4943 0.892863 13.8872 1.37748 13.8872H22.4371C22.9218 13.8872 23.3146 13.4943 23.3146 13.0097V12.7808C23.3146 12.2962 22.9218 11.9033 22.4371 11.9033H1.37749ZM1.4917 16.2526C1.4917 15.768 1.88456 15.3751 2.36918 15.3751H7.55779C8.04242 15.3751 8.43528 15.768 8.43528 16.2526V16.4815C8.43528 16.9661 8.04242 17.359 7.55779 17.359H2.36919C1.88456 17.359 1.4917 16.9661 1.4917 16.4815V16.2526ZM11.2968 15.3751C10.8122 15.3751 10.4193 15.768 10.4193 16.2526V16.4815C10.4193 16.9661 10.8122 17.359 11.2968 17.359H22.437C22.9217 17.359 23.3145 16.9661 23.3145 16.4815V16.2526C23.3145 15.768 22.9217 15.3751 22.437 15.3751H11.2968Z" fill="#606574"/>
</svg>
