<svg width="22" height="14" viewBox="0 0 22 14" fill="none" xmlns="http://www.w3.org/2000/svg">
<path fill-rule="evenodd" clip-rule="evenodd" d="M1.5 11.3998C1.5 10.5161 2.21634 9.7998 3.1 9.7998H19.5C20.3837 9.7998 21.1 10.5161 21.1 11.3998V11.3998C21.1 12.2835 20.3837 12.9998 19.5 12.9998H3.1C2.21635 12.9998 1.5 12.2835 1.5 11.3998V11.3998Z" stroke="#606574" stroke-width="1.2"/>
<path d="M18.6923 10.0319C18.6923 6.03774 15.381 2.7998 11.2964 2.7998C7.21168 2.7998 3.90039 6.03774 3.90039 10.0319" stroke="#606574" stroke-width="1.2"/>
<path d="M12.6757 2.65545C12.6954 2.56387 12.7058 2.46892 12.7058 2.37161C12.7058 1.61409 12.0778 1 11.3031 1C10.5284 1 9.90039 1.61409 9.90039 2.37161C9.90039 2.48864 9.91538 2.60224 9.94358 2.71069" stroke="#606574" stroke-width="1.2"/>
</svg>
