<svg width="23" height="23" viewBox="0 0 23 23" fill="none" xmlns="http://www.w3.org/2000/svg">
<path fill-rule="evenodd" clip-rule="evenodd" d="M23 11.5181V11.5002C23 5.21725 17.8947 0.0600028 11.6114 0.000516369C8.93243 -0.0249277 6.31573 0.890707 4.24301 2.57844C4.20476 2.60967 4.15124 2.60862 4.11983 2.57721L2.57423 1.02582C2.14256 0.594152 1.49874 0.466055 0.934235 0.699613C0.369026 0.933348 0.00333405 1.47943 0.00263214 2.09131L0 6.16359C0 6.76214 0.232506 7.32331 0.654701 7.74551C1.07725 8.16823 1.63895 8.40073 2.23662 8.40038L6.30942 8.3981C6.92095 8.3974 7.46703 8.03171 7.70077 7.4665C7.93433 6.90199 7.80623 6.25817 7.37456 5.8265L7.36754 5.81948L7.00711 5.46712C6.65247 5.12003 6.08376 5.12635 5.73666 5.48116C5.43607 5.78842 5.40063 6.25624 5.62717 6.60158L2.23557 6.60351C2.07746 6.60351 1.97323 6.52314 1.92532 6.47506C1.87724 6.42716 1.79688 6.3231 1.79688 6.16517L1.79916 2.79375L2.84798 3.8466C3.53461 4.53324 4.62222 4.58694 5.37764 3.97172C7.12591 2.54808 9.33375 1.77581 11.5944 1.79722C16.8961 1.84758 21.2031 6.19851 21.2031 11.5002V11.5153C21.1949 16.8571 16.842 21.2031 11.5 21.2031C9.58678 21.2031 7.72446 20.6342 6.11446 19.5579C5.7021 19.282 5.14408 19.3929 4.86823 19.8053C4.59256 20.2176 4.70329 20.7758 5.11583 21.0515C7.02238 22.3262 9.23004 23 11.5 23C14.5686 23 17.4544 21.8059 19.6258 19.6377C21.7969 17.4697 22.9953 14.5861 23 11.5181ZM10.0927 9.88808C9.23328 10.3842 8.93879 11.4833 9.43495 12.3427C9.76748 12.9186 10.3706 13.2403 10.991 13.2409L13.7169 17.9624C13.965 18.3921 14.5145 18.5394 14.9442 18.2912C15.374 18.0431 15.5212 17.4937 15.2731 17.0639L12.5471 12.3425C12.8568 11.8049 12.8798 11.1217 12.5472 10.5458C12.4668 10.4064 12.3702 10.2823 12.2616 10.1735L13.1331 6.92098C13.2617 6.44173 12.9772 5.94905 12.4979 5.82074C12.2583 5.75643 12.0152 5.79547 11.8162 5.91041C11.6169 6.02543 11.4617 6.21635 11.3977 6.45597L10.526 9.70837C10.3777 9.74825 10.232 9.80763 10.0927 9.88808ZM0.898437 10.6016C1.39468 10.6016 1.79687 11.0037 1.79687 11.5C1.79687 13.2746 2.28014 15.0102 3.19419 16.5195C3.45126 16.9438 3.31562 17.4962 2.89132 17.7534C2.46684 18.0105 1.91444 17.8749 1.65737 17.4504C0.573105 15.6605 0 13.6029 0 11.5C0 11.0037 0.402191 10.6016 0.898437 10.6016Z" fill="#4C5973"/>
</svg>
