<svg width="16" height="18" viewBox="0 0 16 18" fill="none" xmlns="http://www.w3.org/2000/svg">
<path fill-rule="evenodd" clip-rule="evenodd" d="M12.0311 4.93389L12.9081 3.81832C15.208 5.59046 16.3555 8.46052 15.9025 11.3081C15.5704 13.3981 14.4364 15.235 12.7089 16.4806C11.3263 17.4777 9.69557 18 8.01728 18C7.59907 18 7.17813 17.9678 6.75701 17.902C2.39993 17.223 -0.58722 13.1599 0.0977929 8.84547C0.429886 6.75498 1.56407 4.91809 3.29142 3.67266C4.77824 2.60066 6.55194 2.07906 8.36279 2.16388L7.03066 0.907483L7.90405 0L9.94849 1.92941L9.94895 1.92913L10.8638 2.79333L9.99108 3.70081L9.99061 3.70007L8.04251 5.72525L7.12701 4.86013L8.3611 3.5781C6.8512 3.493 5.37057 3.92199 4.13151 4.81517C2.71232 5.8384 1.7803 7.34765 1.50769 9.06489C0.945006 12.6097 3.3994 15.9474 6.97897 16.5055C8.71299 16.7769 10.4493 16.3611 11.8688 15.3381C13.2878 14.3146 14.2195 12.8055 14.4922 11.0884C14.8643 8.7484 13.9214 6.39037 12.0311 4.93389ZM11.0244 6.90938H6.54619C6.5241 6.90938 6.51147 6.92188 6.50832 6.94688V7.36875C6.50832 7.39375 6.52094 7.40625 6.54619 7.40625H7.3604C7.64127 7.40625 7.95212 7.49531 8.29296 7.67344C8.53912 7.85156 8.70006 8.08281 8.77581 8.36719H6.54619C6.5241 8.36719 6.51147 8.37969 6.50832 8.40469V8.82656C6.50832 8.85156 6.52094 8.86406 6.54619 8.86406H8.79474V8.92031C8.79474 8.97344 8.78843 9.04375 8.77581 9.13125C8.57067 9.85938 7.95686 10.2234 6.93436 10.2234H6.6456V10.2422C8.49494 12.6297 9.42434 13.8234 9.4338 13.8234H10.3474V13.7859L7.94266 10.7016C7.9679 10.7016 7.98053 10.6953 7.98053 10.6828C8.19828 10.6828 8.56594 10.5359 9.0835 10.2422C9.66734 9.79531 9.95926 9.33594 9.95926 8.86406H11.0244C11.0496 8.86406 11.0622 8.85156 11.0622 8.82656V8.40469C11.0622 8.38281 11.0496 8.37031 11.0244 8.36719H9.91665L9.89772 8.23125C9.76517 7.83437 9.57897 7.57188 9.33913 7.44375V7.40625H11.0244C11.0496 7.40625 11.0622 7.39375 11.0622 7.36875V6.94688C11.0622 6.925 11.0496 6.9125 11.0244 6.90938Z" fill="#032F49"/>
</svg>
