<svg width="22" height="22" viewBox="0 0 22 22" fill="none" xmlns="http://www.w3.org/2000/svg">
<path fill-rule="evenodd" clip-rule="evenodd" d="M15.6742 14.5201L20.3946 19.2405C20.7151 19.5571 20.7151 20.078 20.3946 20.3946C20.074 20.7151 19.5571 20.7151 19.2365 20.3946L14.5161 15.6782C13.0896 16.8483 11.2663 17.5495 9.27475 17.5495C4.7026 17.5495 1 13.8429 1 9.27475C1 4.70661 4.7026 1 9.27475 1C13.8429 1 17.5495 4.70661 17.5495 9.27475C17.5495 11.2663 16.8442 13.0936 15.6742 14.5201ZM2.64293 9.27475C2.64293 12.9293 5.61623 15.9026 9.27475 15.9026C12.9293 15.9026 15.9066 12.9293 15.9066 9.27475C15.9066 5.62024 12.9293 2.64293 9.27475 2.64293C5.61623 2.64293 2.64293 5.62024 2.64293 9.27475Z" fill="#4C5973"/>
<path d="M20.3946 19.2405L19.9862 19.6489L19.9888 19.6514L20.3946 19.2405ZM15.6742 14.5201L15.2276 14.1539L14.8958 14.5584L15.2658 14.9285L15.6742 14.5201ZM20.3946 20.3946L19.9888 19.9836L19.9862 19.9862L20.3946 20.3946ZM19.2365 20.3946L19.6449 19.9862L19.6447 19.986L19.2365 20.3946ZM14.5161 15.6782L14.9243 15.2696L14.5543 14.8999L14.1499 15.2317L14.5161 15.6782ZM20.8029 18.8322L16.0825 14.1117L15.2658 14.9285L19.9862 19.6489L20.8029 18.8322ZM20.8003 20.8055C21.3499 20.2628 21.3499 19.3723 20.8003 18.8296L19.9888 19.6514C20.0804 19.7419 20.0804 19.8932 19.9888 19.9837L20.8003 20.8055ZM18.8282 20.8029C19.3743 21.349 20.2568 21.349 20.8029 20.8029L19.9862 19.9862C19.8912 20.0813 19.7399 20.0813 19.6449 19.9862L18.8282 20.8029ZM14.1079 16.0867L18.8283 20.8031L19.6447 19.986L14.9243 15.2696L14.1079 16.0867ZM9.27475 18.127C11.4045 18.127 13.3562 17.3765 14.8823 16.1247L14.1499 15.2317C12.8229 16.32 11.1281 16.972 9.27475 16.972V18.127ZM0.4225 9.27475C0.4225 14.1617 4.38347 18.127 9.27475 18.127V16.972C5.02173 16.972 1.5775 13.5241 1.5775 9.27475H0.4225ZM9.27475 0.4225C4.38347 0.4225 0.4225 4.38784 0.4225 9.27475H1.5775C1.5775 5.02537 5.02173 1.5775 9.27475 1.5775V0.4225ZM18.127 9.27475C18.127 4.38766 14.1618 0.4225 9.27475 0.4225V1.5775C13.5239 1.5775 16.972 5.02555 16.972 9.27475H18.127ZM16.1207 14.8863C17.3721 13.3606 18.127 11.405 18.127 9.27475H16.972C16.972 11.1276 16.3164 12.8265 15.2276 14.1539L16.1207 14.8863ZM9.27475 15.3251C5.93495 15.3251 3.22043 12.6101 3.22043 9.27475H2.06543C2.06543 13.2484 5.29751 16.4801 9.27475 16.4801V15.3251ZM15.3291 9.27475C15.3291 12.6099 12.6108 15.3251 9.27475 15.3251V16.4801C13.2478 16.4801 16.4841 13.2487 16.4841 9.27475H15.3291ZM9.27475 3.22043C12.6103 3.22043 15.3291 5.93918 15.3291 9.27475H16.4841C16.4841 5.30129 13.2482 2.06543 9.27475 2.06543V3.22043ZM3.22043 9.27475C3.22043 5.93895 5.9354 3.22043 9.27475 3.22043V2.06543C5.29706 2.06543 2.06543 5.30152 2.06543 9.27475H3.22043Z" fill="#4C5973"/>
</svg>
